<svg xmlns="http://www.w3.org/2000/svg" width="400" height="200"><rect x="0" y="144" width="30" height="56" fill="blue"></rect><rect x="40" y="164.2" width="30" height="35.800000000000004" fill="blue"></rect><rect x="80" y="179.1" width="30" height="20.900000000000002" fill="blue"></rect><rect x="120" y="172.6" width="30" height="27.400000000000002" fill="blue"></rect><rect x="160" y="165.1" width="30" height="34.9" fill="blue"></rect><rect x="200" y="141.9" width="30" height="58.1" fill="blue"></rect><rect x="240" y="177.8" width="30" height="22.200000000000003" fill="blue"></rect><rect x="280" y="177.9" width="30" height="22.1" fill="blue"></rect><rect x="320" y="190.2" width="30" height="9.8" fill="blue"></rect><rect x="360" y="178.5" width="30" height="21.5" fill="blue"></rect><rect x="400" y="185.9" width="30" height="14.100000000000001" fill="blue"></rect><rect x="440" y="156.9" width="30" height="43.1" fill="blue"></rect><rect x="480" y="167.9" width="30" height="32.1" fill="blue"></rect><rect x="520" y="142.2" width="30" height="57.800000000000004" fill="blue"></rect><rect x="560" y="172.7" width="30" height="27.3" fill="blue"></rect><rect x="600" y="173.1" width="30" height="26.900000000000002" fill="blue"></rect><rect x="640" y="141.9" width="30" height="58.1" fill="blue"></rect><rect x="680" y="164.3" width="30" height="35.7" fill="blue"></rect><rect x="720" y="182.6" width="30" height="17.400000000000002" fill="blue"></rect><rect x="760" y="174.2" width="30" height="25.8" fill="blue"></rect><rect x="800" y="170.6" width="30" height="29.400000000000002" fill="blue"></rect><rect x="840" y="162.1" width="30" height="37.9" fill="blue"></rect><rect x="880" y="165.3" width="30" height="34.7" fill="blue"></rect><rect x="920" y="167.7" width="30" height="32.300000000000004" fill="blue"></rect><rect x="960" y="134" width="30" height="66" fill="blue"></rect><rect x="1000" y="173" width="30" height="27" fill="blue"></rect><rect x="1040" y="181.5" width="30" height="18.5" fill="blue"></rect><rect x="1080" y="172.8" width="30" height="27.200000000000003" fill="blue"></rect><rect x="1120" y="167.7" width="30" height="32.300000000000004" fill="blue"></rect><rect x="1160" y="170.3" width="30" height="29.700000000000003" fill="blue"></rect><rect x="1200" y="166.4" width="30" height="33.6" fill="blue"></rect><rect x="1240" y="147.3" width="30" height="52.7" fill="blue"></rect><rect x="1280" y="149" width="30" height="51" fill="blue"></rect><rect x="1320" y="190.2" width="30" height="9.8" fill="blue"></rect><rect x="1360" y="175.7" width="30" height="24.3" fill="blue"></rect><rect x="1400" y="170.7" width="30" height="29.3" fill="blue"></rect><rect x="1440" y="164.2" width="30" height="35.800000000000004" fill="blue"></rect><rect x="1480" y="178.4" width="30" height="21.6" fill="blue"></rect><rect x="1520" y="171.3" width="30" height="28.700000000000003" fill="blue"></rect><rect x="1560" y="170.6" width="30" height="29.400000000000002" fill="blue"></rect><rect x="1600" y="173" width="30" height="27" fill="blue"></rect><rect x="1640" y="160.4" width="30" height="39.6" fill="blue"></rect><rect x="1680" y="173.1" width="30" height="26.900000000000002" fill="blue"></rect><rect x="1720" y="176.3" width="30" height="23.700000000000003" fill="blue"></rect><rect x="1760" y="177.7" width="30" height="22.3" fill="blue"></rect><rect x="1800" y="174.9" width="30" height="25.1" fill="blue"></rect><rect x="1840" y="179.1" width="30" height="20.900000000000002" fill="blue"></rect><rect x="1880" y="108.3" width="30" height="91.7" fill="blue"></rect><rect x="1920" y="162.5" width="30" height="37.5" fill="blue"></rect><rect x="1960" y="186.1" width="30" height="13.9" fill="blue"></rect><rect x="2000" y="153.8" width="30" height="46.2" fill="blue"></rect><rect x="2040" y="125.7" width="30" height="74.3" fill="blue"></rect><rect x="2080" y="172.1" width="30" height="27.900000000000002" fill="blue"></rect><rect x="2120" y="118.89999999999999" width="30" height="81.10000000000001" fill="blue"></rect><rect x="2160" y="165.7" width="30" height="34.300000000000004" fill="blue"></rect><rect x="2200" y="179.1" width="30" height="20.900000000000002" fill="blue"></rect><rect x="2240" y="183.6" width="30" height="16.400000000000002" fill="blue"></rect><rect x="2280" y="166.2" width="30" height="33.800000000000004" fill="blue"></rect><rect x="2320" y="163" width="30" height="37" fill="blue"></rect><rect x="2360" y="167.5" width="30" height="32.5" fill="blue"></rect><rect x="2400" y="181.2" width="30" height="18.8" fill="blue"></rect><rect x="2440" y="178.6" width="30" height="21.400000000000002" fill="blue"></rect><rect x="2480" y="165.5" width="30" height="34.5" fill="blue"></rect><rect x="2520" y="147.7" width="30" height="52.300000000000004" fill="blue"></rect><rect x="2560" y="165.3" width="30" height="34.7" fill="blue"></rect><rect x="2600" y="170" width="30" height="30" fill="blue"></rect><rect x="2640" y="178.3" width="30" height="21.700000000000003" fill="blue"></rect><rect x="2680" y="155.1" width="30" height="44.900000000000006" fill="blue"></rect><rect x="2720" y="183.5" width="30" height="16.5" fill="blue"></rect><rect x="2760" y="180.9" width="30" height="19.1" fill="blue"></rect><rect x="2800" y="167.5" width="30" height="32.5" fill="blue"></rect><rect x="2840" y="144.7" width="30" height="55.300000000000004" fill="blue"></rect><rect x="2880" y="163.6" width="30" height="36.4" fill="blue"></rect><rect x="2920" y="181.1" width="30" height="18.900000000000002" fill="blue"></rect><rect x="2960" y="152" width="30" height="48" fill="blue"></rect><rect x="3000" y="174.4" width="30" height="25.6" fill="blue"></rect><rect x="3040" y="180.6" width="30" height="19.400000000000002" fill="blue"></rect><rect x="3080" y="160.4" width="30" height="39.6" fill="blue"></rect><rect x="3120" y="130.39999999999998" width="30" height="69.60000000000001" fill="blue"></rect><rect x="3160" y="151.2" width="30" height="48.800000000000004" fill="blue"></rect><rect x="3200" y="164" width="30" height="36" fill="blue"></rect><rect x="3240" y="67.79999999999998" width="30" height="132.20000000000002" fill="blue"></rect><rect x="3280" y="144.8" width="30" height="55.2" fill="blue"></rect><rect x="3320" y="149.5" width="30" height="50.5" fill="blue"></rect><rect x="3360" y="159.4" width="30" height="40.6" fill="blue"></rect><rect x="3400" y="158.8" width="30" height="41.2" fill="blue"></rect><rect x="3440" y="126.8" width="30" height="73.2" fill="blue"></rect><rect x="3480" y="153.5" width="30" height="46.5" fill="blue"></rect><rect x="3520" y="174.1" width="30" height="25.900000000000002" fill="blue"></rect><rect x="3560" y="181.6" width="30" height="18.400000000000002" fill="blue"></rect><rect x="3600" y="180.8" width="30" height="19.200000000000003" fill="blue"></rect><rect x="3640" y="180.2" width="30" height="19.8" fill="blue"></rect><rect x="3680" y="127.2" width="30" height="72.8" fill="blue"></rect><rect x="3720" y="169.3" width="30" height="30.700000000000003" fill="blue"></rect><rect x="3760" y="170.8" width="30" height="29.200000000000003" fill="blue"></rect><rect x="3800" y="115.19999999999999" width="30" height="84.80000000000001" fill="blue"></rect><rect x="3840" y="174.2" width="30" height="25.8" fill="blue"></rect><rect x="3880" y="182.9" width="30" height="17.1" fill="blue"></rect><rect x="3920" y="150.8" width="30" height="49.2" fill="blue"></rect><rect x="3960" y="167.8" width="30" height="32.2" fill="blue"></rect><rect x="4000" y="156.6" width="30" height="43.400000000000006" fill="blue"></rect><rect x="4040" y="180.2" width="30" height="19.8" fill="blue"></rect><rect x="4080" y="178.3" width="30" height="21.700000000000003" fill="blue"></rect><rect x="4120" y="170.1" width="30" height="29.900000000000002" fill="blue"></rect><rect x="4160" y="172.4" width="30" height="27.6" fill="blue"></rect><rect x="4200" y="163.8" width="30" height="36.2" fill="blue"></rect><rect x="4240" y="172.3" width="30" height="27.700000000000003" fill="blue"></rect><rect x="4280" y="132.2" width="30" height="67.8" fill="blue"></rect><rect x="4320" y="176.9" width="30" height="23.1" fill="blue"></rect><rect x="4360" y="165.1" width="30" height="34.9" fill="blue"></rect><rect x="4400" y="169.5" width="30" height="30.5" fill="blue"></rect><rect x="4440" y="180.9" width="30" height="19.1" fill="blue"></rect><rect x="4480" y="173.1" width="30" height="26.900000000000002" fill="blue"></rect><rect x="4520" y="169.2" width="30" height="30.8" fill="blue"></rect><rect x="4560" y="173.4" width="30" height="26.6" fill="blue"></rect><rect x="4600" y="184.6" width="30" height="15.4" fill="blue"></rect><rect x="4640" y="181.5" width="30" height="18.5" fill="blue"></rect><rect x="4680" y="134" width="30" height="66" fill="blue"></rect><rect x="4720" y="130.8" width="30" height="69.2" fill="blue"></rect><rect x="4760" y="153.8" width="30" height="46.2" fill="blue"></rect><rect x="4800" y="185.5" width="30" height="14.5" fill="blue"></rect><rect x="4840" y="145" width="30" height="55" fill="blue"></rect><rect x="4880" y="170.7" width="30" height="29.3" fill="blue"></rect><rect x="4920" y="149.2" width="30" height="50.800000000000004" fill="blue"></rect><rect x="4960" y="164.5" width="30" height="35.5" fill="blue"></rect><rect x="5000" y="170.3" width="30" height="29.700000000000003" fill="blue"></rect><rect x="5040" y="172.6" width="30" height="27.400000000000002" fill="blue"></rect><rect x="5080" y="183.2" width="30" height="16.8" fill="blue"></rect><rect x="5120" y="180.4" width="30" height="19.6" fill="blue"></rect><rect x="5160" y="171.3" width="30" height="28.700000000000003" fill="blue"></rect><rect x="5200" y="173.5" width="30" height="26.5" fill="blue"></rect><rect x="5240" y="183" width="30" height="17" fill="blue"></rect></svg>